<svg width="106" height="19" viewBox="0 0 106 19" fill="none" xmlns="http://www.w3.org/2000/svg">
<path d="M6.83333 17.6667H11.8333C16 17.6667 17.6667 16 17.6667 11.8333V6.83333C17.6667 2.66667 16 1 11.8333 1H6.83333C2.66667 1 1 2.66667 1 6.83333V11.8333C1 16 2.66667 17.6667 6.83333 17.6667Z" stroke="black" stroke-width="1.5" stroke-linecap="round" stroke-linejoin="round"/>
<path d="M4 12H6.94612L7.46038 11.0451H11.4786L11.9842 12H15L11.5483 6H7.45166L4 12ZM8.20127 9.64225L9.47385 7.26761L10.729 9.64225H8.20127Z" fill="black"/>
<path d="M13.9892 8H14.0108C14.5662 8 15 7.56372 15 7.0108V6.9892C15 6.43629 14.5662 6 14.0108 6H13.9892C13.4338 6 13 6.43629 13 6.9892V7.0108C13 7.56372 13.4338 8 13.9892 8ZM13.2299 7.0108V6.9892C13.2299 6.55292 13.5597 6.21166 13.9892 6.21166H14.0108C14.4403 6.21166 14.7701 6.55292 14.7701 6.9892V7.0108C14.7701 7.44708 14.4403 7.78834 14.0108 7.78834H13.9892C13.5597 7.78834 13.2299 7.44708 13.2299 7.0108ZM13.6117 7.49892H13.8373V7.10151H14.0586C14.1627 7.10151 14.1887 7.12743 14.1887 7.22678V7.37365C14.1887 7.43413 14.2061 7.46868 14.2321 7.49892H14.4577V7.47732C14.436 7.45572 14.423 7.42117 14.423 7.36501V7.20518C14.423 7.09719 14.3666 7.0324 14.2538 7.02376C14.3536 6.9892 14.4317 6.91577 14.4317 6.78618V6.76458C14.4317 6.58315 14.3232 6.47516 14.0976 6.47516H13.6117V7.49892ZM13.8373 6.946V6.65227H14.0542C14.1497 6.65227 14.1844 6.69114 14.1844 6.78618V6.80778C14.1844 6.89417 14.1497 6.946 14.0542 6.946H13.8373Z" fill="black"/>
<g clip-path="url(#clip0_116_35)">
<path d="M29.5365 2.13658L24 15.805H26.8385L28.0943 12.5834H33.9727L35.2338 15.805H38.0919L32.6946 2.13658H29.5365ZM29.0067 10.2395L31.0259 5.05881L33.0544 10.2395H29.0067Z" fill="black"/>
<path d="M41.2199 13.4523C41.0801 13.3157 41.0099 13.0258 41.0099 12.5834V8.09261H43.2483V6.0425H41.0099V2.87852H38.4116V6.04186H36.353V8.09197H38.4116V13.2663C38.4116 14.0993 38.6316 14.7309 39.0714 15.1606C39.5112 15.5902 40.1571 15.8051 41.0105 15.8051H43.549V13.6575H42.1101C41.6571 13.6575 41.3604 13.5889 41.2206 13.4523H41.2199Z" fill="black"/>
<path d="M50.4745 6.48112C49.7878 6.05852 48.9588 5.84627 47.9859 5.84627C47.0131 5.84627 46.1669 6.0643 45.4474 6.50035C44.728 6.93641 44.1785 7.53855 43.7984 8.30678C43.4184 9.07501 43.2286 9.94713 43.2286 10.9231C43.2286 11.9645 43.4453 12.8694 43.8785 13.6376C44.3111 14.4058 44.8914 14.9919 45.6174 15.3946C46.3435 15.798 47.1332 16 47.9859 16C49.1984 16 50.1909 15.7005 50.9642 15.1016C51.7368 14.5033 52.2502 13.7088 52.5036 12.7193H49.925C49.8318 13.0707 49.6316 13.3638 49.3251 13.5978C49.0185 13.8319 48.6318 13.9492 48.1658 13.9492H48.0056C47.6459 13.9492 47.2993 13.855 46.9664 13.6658C46.633 13.4773 46.3533 13.2137 46.1268 12.8751C45.8997 12.5365 45.7737 12.1524 45.7468 11.7228H52.5029C52.516 11.5663 52.5259 11.4105 52.5331 11.254C52.5397 11.0976 52.543 10.9481 52.543 10.8051C52.543 9.84196 52.3697 8.98588 52.023 8.23753C51.6764 7.48918 51.1598 6.90307 50.4738 6.48047L50.4745 6.48112ZM45.7474 9.77142C45.7743 9.19878 45.9837 8.74348 46.377 8.4049C46.7702 8.06631 47.2467 7.89702 47.806 7.89702H47.9662C48.5262 7.89702 49.0021 8.06631 49.3953 8.4049C49.7885 8.74348 49.9979 9.19878 50.0248 9.77142H45.7474Z" fill="black"/>
<path d="M55.7011 2.13658H53.1029V15.805H55.7011V2.13658Z" fill="black"/>
<path d="M59.479 2.13658H56.6805V4.7728H59.479V2.13658Z" fill="black"/>
<path d="M59.3792 6.04185H56.7809V15.805H59.3792V6.04185Z" fill="black"/>
<path d="M67.1443 6.48112C66.4576 6.05852 65.6286 5.84627 64.6557 5.84627C63.6829 5.84627 62.8367 6.0643 62.1172 6.50035C61.3978 6.93641 60.8483 7.53855 60.4682 8.30678C60.0882 9.07501 59.8984 9.94713 59.8984 10.9231C59.8984 11.9645 60.1151 12.8694 60.5483 13.6376C60.9809 14.4058 61.5612 14.9919 62.2872 15.3946C63.0133 15.798 63.803 16 64.6557 16C65.8682 16 66.8607 15.7005 67.634 15.1016C68.4066 14.5033 68.92 13.7088 69.1734 12.7193H66.5948C66.5016 13.0707 66.3014 13.3638 65.9949 13.5978C65.6883 13.8319 65.3016 13.9492 64.8356 13.9492H64.6754C64.3157 13.9492 63.9691 13.855 63.6362 13.6658C63.3028 13.4773 63.0231 13.2137 62.7966 12.8751C62.5695 12.5365 62.4435 12.1524 62.4166 11.7228H69.1727C69.1858 11.5663 69.1957 11.4105 69.2029 11.254C69.2095 11.0976 69.2128 10.9481 69.2128 10.8051C69.2128 9.84196 69.0395 8.98588 68.6929 8.23753C68.3462 7.48918 67.8296 6.90307 67.1436 6.48047L67.1443 6.48112ZM62.4172 9.77142C62.4441 9.19878 62.6535 8.74348 63.0468 8.4049C63.44 8.06631 63.9165 7.89702 64.4758 7.89702H64.636C65.196 7.89702 65.6719 8.06631 66.0651 8.4049C66.4583 8.74348 66.6677 9.19878 66.6946 9.77142H62.4172Z" fill="black"/>
<path d="M75.2698 5.94438C74.5365 5.94438 73.9208 6.12329 73.4206 6.48112C72.921 6.83894 72.5711 7.34361 72.3709 7.99449V6.04185H69.7727V15.805H72.3709V10.7282C72.3709 9.89519 72.5738 9.28022 72.9808 8.88264C73.3871 8.4857 74.0166 8.28691 74.87 8.28691H75.7693V5.94374H75.2698V5.94438Z" fill="black"/>
<path d="M104.56 13.5202C104.107 13.5202 103.811 13.4516 103.671 13.315C103.531 13.1785 103.461 12.8886 103.461 12.4461V7.95539H105.699V5.90528H103.461V2.74194H100.863V5.90528H96.1257V15.2696L90.7823 7.66489L96.0259 2.26741V4.63558H98.8244V2H92.9479L87.011 8.12917V2H84.3123V15.6685H87.011V11.5471L88.8556 9.64831L93.0673 15.6685H98.7239V7.95539H98.804H100.863V13.1297C100.863 13.9627 101.083 14.5944 101.522 15.024C101.962 15.4536 102.608 15.6685 103.462 15.6685H106V13.5209H104.561L104.56 13.5202Z" fill="black"/>
<path d="M75.4077 4.96454C75.4077 3.48451 76.5518 2.38731 78.0019 2.38731C79.452 2.38731 80.5962 3.48387 80.5962 4.96454C80.5962 6.44521 79.4514 7.54177 78.0019 7.54177C76.5525 7.54177 75.4077 6.44457 75.4077 4.96454ZM80.117 4.96454C80.117 3.71857 79.1901 2.80285 78.0019 2.80285C76.8138 2.80285 75.8875 3.71857 75.8875 4.96454C75.8875 6.21051 76.8144 7.12623 78.0019 7.12623C79.1894 7.12623 80.117 6.21051 80.117 4.96454ZM76.9227 3.53774H78.0892C78.787 3.53774 79.1356 3.84682 79.1356 4.37907C79.1356 4.7837 78.8849 5.0075 78.514 5.09279V5.11395C79.2551 5.2313 79.0266 6.2958 79.2006 6.34902V6.38108H78.5028C78.361 6.25347 78.5901 5.36918 77.8923 5.36918H77.6087V6.38108H76.9221V3.53774H76.9227ZM77.9146 4.82603C78.2087 4.82603 78.4923 4.7728 78.4923 4.43229C78.4923 4.11295 78.2087 4.06998 77.9146 4.06998H77.6094V4.82603H77.9146Z" fill="black"/>
</g>
<defs>
<clipPath id="clip0_116_35">
<rect width="82" height="14" fill="white" transform="translate(24 2)"/>
</clipPath>
</defs>
</svg>
